<svg version="1.1" id="Layer_1" xmlns="http://www.w3.org/2000/svg" xmlns:xlink="http://www.w3.org/1999/xlink" x="0px" y="0px"
	 width="100%" viewBox="0 0 512 512" enable-background="new 0 0 512 512" xml:space="preserve">
<path fill="#000000" opacity="1.000000" stroke="none" 
	d="
M513.000000,138.000000 
	C513.000000,263.302856 513.000000,388.105713 513.000000,512.954285 
	C342.405457,512.954285 171.810928,512.954285 1.108189,512.954285 
	C1.108189,342.447174 1.108189,171.894257 1.108189,1.170674 
	C171.666519,1.170674 342.333252,1.170674 513.000000,1.170674 
	C513.000000,46.522373 513.000000,92.011185 513.000000,138.000000 
M131.924713,334.980286 
	C141.948944,334.931213 151.973190,334.882141 162.924835,334.980103 
	C174.282074,334.931366 185.639328,334.882660 197.924103,334.981018 
	C210.948395,334.931915 223.972672,334.882812 237.846619,334.979340 
	C246.803452,335.044464 249.001526,332.902222 249.000092,324.107788 
	C248.998947,317.119019 248.997589,310.130219 248.995438,303.141449 
	C248.992661,294.152679 246.890594,292.008057 238.078506,292.004639 
	C234.144775,292.003113 230.211044,292.004395 225.996017,292.004395 
	C225.996017,288.252441 226.064606,285.113953 225.980225,281.979645 
	C225.848557,277.089417 222.879562,274.049866 217.926437,274.034363 
	C205.949860,273.996796 193.972794,274.112762 181.148697,274.028961 
	C166.536438,273.226105 172.725174,285.126343 170.394760,292.167786 
	C166.209473,292.167786 162.103256,292.167786 157.069168,292.028656 
	C145.711914,292.074951 134.354660,292.121246 122.069717,292.026825 
	C112.712120,292.073700 103.354530,292.120605 93.104752,292.025757 
	C91.175278,292.025757 89.245804,292.025757 86.994987,292.025757 
	C86.994987,288.494354 87.107552,285.523193 86.970337,282.563568 
	C86.724136,277.253204 83.760765,274.049805 78.906815,274.033264 
	C68.270233,273.996979 57.633118,274.113678 46.094646,274.026825 
	C42.442135,274.460999 38.176357,273.844086 35.262497,275.544220 
	C28.846375,279.287842 33.607742,286.545990 31.505445,291.851440 
	C30.297583,291.960480 29.146374,292.064423 27.073421,292.026794 
	C23.576618,292.018738 20.079353,291.971313 16.583126,292.012329 
	C11.974341,292.066345 9.029574,295.032104 9.010029,299.688416 
	C8.972283,308.680237 8.984906,317.672272 8.995970,326.664215 
	C9.002367,331.864227 11.862499,334.969696 17.049561,334.977478 
	C33.031475,335.001526 49.013596,334.890961 65.922928,334.982361 
	C77.614143,334.932526 89.305367,334.882721 101.923828,334.981659 
	C111.614990,334.932159 121.306152,334.882629 131.924713,334.980286 
M172.068283,9.032550 
	C160.710892,9.077657 149.353500,9.122763 137.068024,9.032033 
	C124.376801,9.077623 111.685585,9.123215 98.066483,9.033184 
	C94.930435,9.023183 91.790337,9.112581 88.659096,8.984806 
	C78.702057,8.578492 68.942635,9.222211 59.155457,14.016993 
	C48.764877,18.888197 39.492199,25.162851 32.338203,35.218655 
	C25.238422,46.119492 21.225525,58.178875 18.273067,71.304970 
	C17.037075,76.502327 15.711470,81.680344 14.585262,86.901382 
	C12.711610,95.587547 10.965866,104.301300 9.029077,113.931557 
	C9.074710,128.289154 9.120343,142.646759 9.027392,157.932083 
	C9.073825,170.623016 9.120258,183.313965 9.026321,196.930603 
	C7.502619,215.530045 13.094047,231.816452 25.883713,245.252411 
	C39.977894,260.058807 57.412579,266.855927 78.923119,264.980988 
	C90.947227,264.932220 102.971344,264.883453 115.923050,264.982208 
	C127.947914,264.933258 139.972778,264.884308 152.925156,264.980927 
	C163.949524,264.932159 174.973877,264.883423 186.925934,264.979126 
	C199.283112,264.930298 211.640289,264.881439 224.925217,264.977234 
	C238.948029,264.928680 252.970840,264.880127 267.921844,264.976440 
	C281.612335,264.928497 295.302826,264.880554 309.922058,264.976227 
	C322.946381,264.928223 335.970673,264.880219 349.923279,264.975067 
	C362.947540,264.927551 375.971832,264.880035 389.924561,264.973785 
	C402.947998,264.926270 415.971466,264.878784 429.923492,264.972015 
	C443.613220,264.925720 457.302917,264.879425 471.738281,264.971130 
	C476.090332,264.294373 477.808746,261.156097 477.919128,257.352570 
	C478.135132,249.908646 477.889252,242.451309 477.972137,234.071213 
	C477.979462,219.576111 477.989258,205.081009 477.993347,190.585907 
	C477.996216,180.499130 476.928772,179.884216 467.118378,176.899399 
	C449.384033,171.503708 431.806396,165.574661 414.264008,159.573944 
	C405.064819,156.427185 396.079132,152.656158 386.347565,148.845245 
	C385.938995,148.574493 385.550873,148.264557 385.118835,148.038712 
	C371.599304,140.971695 357.823120,134.347885 344.639893,126.701660 
	C335.677917,121.503754 327.545837,114.874924 318.840607,108.358185 
	C318.265137,107.891136 317.689667,107.424088 316.833710,106.347954 
	C315.569946,105.526619 314.306152,104.705292 312.990784,103.173271 
	C310.934387,101.106522 308.877991,99.039772 306.867950,96.484108 
	C306.684937,96.121620 306.406525,96.019806 305.453796,95.918297 
	C304.920593,95.275887 304.387390,94.633469 303.900055,93.456566 
	C303.614563,93.258446 303.329071,93.060326 302.785126,92.292450 
	C301.561554,91.180611 300.337952,90.068771 298.824982,88.338509 
	C295.165436,83.730148 291.115387,79.375710 287.921814,74.464348 
	C279.400848,61.360012 271.660126,47.734550 262.843262,34.839993 
	C252.165741,19.224237 236.577393,11.388145 217.071274,9.030667 
	C211.047318,9.076506 205.023376,9.122343 198.070862,9.031962 
	C189.712723,9.077351 181.354584,9.122738 172.068283,9.032550 
M308.168060,272.981445 
	C307.061127,273.195343 305.888306,273.242279 304.857483,273.649078 
	C294.783417,277.624786 287.225616,286.946136 289.027130,302.865631 
	C289.027130,304.131958 289.027130,305.398315 289.027130,306.599274 
	C274.700409,308.051361 269.612152,312.594116 270.027710,323.931152 
	C270.018250,331.574982 269.940460,339.219574 270.022766,346.862427 
	C270.080048,352.181854 274.679657,357.866058 279.762390,358.967773 
	C282.727478,359.610443 285.750122,359.987762 289.166443,360.554047 
	C289.166443,367.762665 289.166443,374.883392 289.028900,382.932037 
	C289.075104,396.289703 289.121338,409.647369 289.028473,423.932556 
	C289.075043,434.956451 289.121613,445.980347 289.027405,457.931458 
	C289.018585,462.743866 289.004974,467.556244 289.001953,472.368652 
	C288.996521,480.987946 289.509644,481.698151 298.000122,484.623383 
	C298.000122,485.681488 297.915253,486.835968 298.013550,487.974640 
	C298.808411,497.183136 304.118927,506.159851 315.733154,505.056702 
	C319.515900,504.697418 323.410889,505.374023 327.162659,504.879547 
	C330.218079,504.476837 333.136383,503.033813 336.739838,501.773621 
	C342.182556,497.170563 342.840179,490.687897 343.294891,483.830353 
	C346.410461,483.830353 349.202271,483.830353 352.921997,483.978210 
	C368.945282,483.929749 384.968567,483.881287 401.919861,483.980804 
	C412.167419,483.980804 422.414948,483.980804 432.999908,483.980804 
	C432.999908,486.515442 432.898651,488.484131 433.019775,490.439026 
	C433.324677,495.359741 434.984802,499.467773 439.518036,502.186218 
	C448.115173,507.341705 457.148682,504.873993 466.839264,504.008270 
	C472.990875,501.845978 477.338959,494.537384 477.110901,488.940918 
	C477.042664,487.266754 478.329773,485.537323 479.713806,483.747955 
	C484.542023,482.398895 486.969727,479.134277 486.978485,474.204712 
	C486.996979,463.804382 486.890411,453.403839 486.978149,442.075287 
	C486.929718,428.384979 486.881287,414.694702 486.975525,400.076050 
	C486.927948,387.384583 486.880402,374.693115 487.016052,361.196167 
	C488.276703,360.796295 489.511597,360.191528 490.802155,360.029175 
	C500.546906,358.802917 505.949219,352.645905 505.745331,345.621094 
	C505.830750,341.189484 506.068817,336.753937 505.955231,332.327423 
	C505.857178,328.505402 505.359192,324.693665 505.004639,320.077118 
	C504.613007,311.778503 500.111023,308.309631 486.997559,306.494507 
	C486.997559,303.615051 487.146759,300.655914 486.972321,297.715973 
	C486.114685,283.261230 477.295044,273.120636 463.318481,272.168732 
	C452.262329,271.415710 441.107361,272.113800 429.068054,272.032928 
	C416.044006,272.077759 403.019928,272.122589 389.067871,272.031250 
	C376.044830,272.075989 363.021790,272.120697 349.070190,272.029297 
	C337.050842,272.017761 325.031403,271.978485 313.012360,272.033203 
	C311.656677,272.039398 310.303467,272.576111 308.168060,272.981445 
z"/>
<path fill="#EC4625" opacity="1.000000" stroke="none" 
	d="
M317.114197,106.957039 
	C317.689667,107.424088 318.265137,107.891136 318.951263,108.989853 
	C320.186066,111.392410 321.037445,113.432503 322.477478,114.891624 
	C334.053070,126.620422 345.768982,138.210678 357.355469,149.928848 
	C358.814911,151.404892 359.772095,153.377609 360.589539,155.068817 
	C358.343628,154.088547 356.456207,153.186768 354.598907,152.226608 
	C329.211761,139.102356 306.366516,122.764648 287.400269,101.071266 
	C274.305481,86.093605 263.427460,69.758904 253.743286,52.470963 
	C244.858459,36.609947 231.859360,26.635290 212.920639,25.509584 
	C211.245667,23.307779 209.662720,21.417641 208.048569,19.554558 
	C205.041794,16.084116 202.016815,12.629426 198.999420,9.168181 
	C205.023376,9.122343 211.047318,9.076506 217.613129,9.422345 
	C219.288849,11.228208 220.306549,12.757541 221.575500,14.037868 
	C229.767441,22.303232 238.014191,30.514250 246.243027,38.743057 
	C261.787140,54.287125 277.291992,69.870918 292.933197,85.316666 
	C294.583008,86.945869 297.034698,87.763039 299.114380,88.956940 
	C300.337952,90.068771 301.561554,91.180611 303.018982,92.786118 
	C303.416473,93.547974 303.616943,93.785065 303.854187,93.991058 
	C304.387390,94.633469 304.920593,95.275887 305.851440,96.202637 
	C306.412476,96.681305 306.603333,96.843323 306.821625,96.973022 
	C308.877991,99.039772 310.934387,101.106522 313.082703,103.881485 
	C314.487823,105.378822 315.800995,106.167931 317.114197,106.957039 
z"/>
<path fill="#EA3827" opacity="1.000000" stroke="none" 
	d="
M386.997009,149.167053 
	C396.079132,152.656158 405.064819,156.427185 414.264008,159.573944 
	C431.806396,165.574661 449.384033,171.503708 467.118378,176.899399 
	C476.928772,179.884216 477.996216,180.499130 477.993347,190.585907 
	C477.989258,205.081009 477.979462,219.576111 477.579590,234.457703 
	C475.080994,233.019043 473.034790,231.118515 470.854645,229.386627 
	C467.675446,226.861053 464.399902,224.456741 461.096619,221.536499 
	C461.019226,213.754501 460.573181,206.402222 461.146851,199.130402 
	C461.571564,193.746094 459.041656,192.311615 454.600037,190.919540 
	C439.644104,186.232147 424.830994,181.089233 409.906921,175.776031 
	C404.814789,170.035294 399.675568,164.730652 394.782959,159.207565 
	C391.980591,156.044144 389.579041,152.525681 386.997009,149.167053 
z"/>
<path fill="#F48819" opacity="1.000000" stroke="none" 
	d="
M289.166443,382.004120 
	C289.166443,374.883392 289.166443,367.762665 289.166443,360.554047 
	C285.750122,359.987762 282.727478,359.610443 279.762390,358.967773 
	C274.679657,357.866058 270.080048,352.181854 270.022766,346.862427 
	C269.940460,339.219574 270.018250,331.574982 270.431183,323.537720 
	C272.930145,324.635864 275.178375,325.956024 277.087433,327.656860 
	C280.446259,330.649292 283.597748,333.874390 286.903931,337.412170 
	C287.046265,339.483368 287.120819,341.144409 287.195343,342.805420 
	C287.480438,342.874756 287.765503,342.944092 288.050598,343.013397 
	C288.421753,342.342957 288.792938,341.672516 289.488342,341.079224 
	C291.901062,342.962891 294.049225,344.705566 296.064484,346.590332 
	C299.367188,349.679260 302.583527,352.860565 305.904480,356.467072 
	C305.972626,365.188843 305.972626,373.446411 305.972626,382.166107 
	C317.078857,382.166107 327.536987,382.166107 338.019135,382.523193 
	C339.488525,385.213013 340.761444,387.677551 342.420471,389.846924 
	C344.797852,392.955658 347.457031,395.848938 349.531952,398.902649 
	C334.726807,399.018372 320.385620,399.065613 305.969696,398.765564 
	C301.663483,391.576447 296.802856,385.375824 289.166443,382.004120 
z"/>
<path fill="#ED4B24" opacity="1.000000" stroke="none" 
	d="
M429.996277,272.167480 
	C441.107361,272.113800 452.262329,271.415710 463.318481,272.168732 
	C477.295044,273.120636 486.114685,283.261230 486.972321,297.715973 
	C487.146759,300.655914 486.997559,303.615051 486.997559,306.494507 
	C500.111023,308.309631 504.613007,311.778503 504.999115,320.953827 
	C504.928253,329.232147 504.862885,336.633728 504.449799,344.003967 
	C502.244934,342.658478 500.306549,341.443939 498.548431,340.008575 
	C495.364716,337.409302 492.288452,334.678345 489.097504,331.567383 
	C489.027679,328.806946 489.027679,326.481537 489.027679,324.156128 
	C488.513519,324.138367 487.999359,324.120605 487.485229,324.102875 
	C487.267670,325.736053 487.050110,327.369263 486.524323,328.890076 
	C485.500153,327.913116 484.839355,326.994965 484.059235,326.192871 
	C479.443970,321.447784 474.801056,316.729675 470.097290,311.539825 
	C470.016724,306.923401 470.144073,302.763641 469.963623,298.617249 
	C469.692749,292.394165 466.113525,289.065125 459.932526,289.001587 
	C454.286896,288.943542 448.641296,288.888428 442.918091,288.508240 
	C441.015991,286.078735 439.116699,284.032440 437.384735,281.853149 
	C434.858826,278.674713 432.453186,275.400726 429.996277,272.167480 
z"/>
<path fill="#F48919" opacity="1.000000" stroke="none" 
	d="
M181.995926,274.166870 
	C193.972794,274.112762 205.949860,273.996796 217.926437,274.034363 
	C222.879562,274.049866 225.848557,277.089417 225.980225,281.979645 
	C226.064606,285.113953 225.996017,288.252441 225.996017,292.004395 
	C230.211044,292.004395 234.144775,292.003113 238.078506,292.004639 
	C246.890594,292.008057 248.992661,294.152679 248.995438,303.141449 
	C248.997589,310.130219 248.998947,317.119019 249.000092,324.107788 
	C249.001526,332.902222 246.803452,335.044464 237.399567,334.556580 
	C234.120209,330.740967 231.198730,327.417267 228.492966,323.926331 
	C227.125870,322.162537 226.149216,320.096100 225.440491,318.093445 
	C227.808960,318.020386 229.732971,318.020386 231.693390,318.020386 
	C231.693390,314.730988 231.693390,312.019287 231.693390,309.478119 
	C231.248825,309.245056 231.109680,309.109009 230.969131,309.107574 
	C226.832352,309.064514 222.695038,309.060608 218.558640,308.997009 
	C212.424149,308.902740 209.015091,305.488037 208.997574,299.465851 
	C208.989578,296.720947 208.996231,293.975983 208.996231,290.825867 
	C203.555130,290.825867 198.776474,290.825867 193.835709,290.532928 
	C190.917496,286.795105 188.082657,283.409210 185.438492,279.880432 
	C184.111908,278.110077 183.132401,276.079681 181.995926,274.166870 
z"/>
<path fill="#F8A913" opacity="1.000000" stroke="none" 
	d="
M77.995453,264.833313 
	C57.412579,266.855927 39.977894,260.058807 25.883713,245.252411 
	C13.094047,231.816452 7.502619,215.530045 9.420410,196.544434 
	C11.331652,197.394241 12.839606,198.641708 14.367766,199.863922 
	C18.184731,202.916748 22.010866,205.958130 25.910440,209.385742 
	C28.245253,215.261597 29.758980,221.231888 32.909256,226.154922 
	C40.400818,237.862244 51.501167,244.905045 65.019455,248.516617 
	C66.341217,250.723648 67.519867,252.679718 68.962372,254.416641 
	C71.898026,257.951477 74.976082,261.368011 77.995453,264.833313 
z"/>
<path fill="#F79D15" opacity="1.000000" stroke="none" 
	d="
M351.994049,483.830353 
	C349.202271,483.830353 346.410461,483.830353 343.294891,483.830353 
	C342.840179,490.687897 342.182556,497.170563 336.133606,501.741699 
	C332.017242,497.529572 328.507080,493.349365 325.354584,488.945557 
	C325.817993,487.292480 325.923767,485.863068 326.074127,483.830719 
	C322.488892,483.830719 319.242035,483.830719 315.917572,483.507080 
	C308.644745,475.707733 301.490295,468.191986 294.220032,460.790009 
	C292.762299,459.305878 290.863586,458.254913 289.168182,457.004242 
	C289.121613,445.980347 289.075043,434.956451 289.421814,423.545593 
	C291.202087,424.264587 292.677887,425.276917 293.959473,426.493835 
	C297.956238,430.288971 301.879486,434.161530 305.900879,438.467896 
	C305.970490,448.191254 305.970490,457.450745 305.970490,467.168915 
	C317.738098,467.168915 328.865845,467.168915 340.066650,467.503784 
	C342.949158,471.249084 345.844788,474.593414 348.531677,478.097809 
	C349.881622,479.858490 350.852020,481.910248 351.994049,483.830353 
z"/>
<path fill="#FBBE0F" opacity="1.000000" stroke="none" 
	d="
M64.995636,334.832672 
	C49.013596,334.890961 33.031475,335.001526 17.049561,334.977478 
	C11.862499,334.969696 9.002367,331.864227 8.995970,326.664215 
	C8.984906,317.672272 8.972283,308.680237 9.010029,299.688416 
	C9.029574,295.032104 11.974341,292.066345 16.583126,292.012329 
	C20.079353,291.971313 23.576618,292.018738 27.606865,292.432343 
	C32.797554,297.905884 37.454800,302.973907 41.874981,308.412262 
	C36.198990,308.782623 30.760061,308.782623 25.298071,308.782623 
	C25.298071,312.262695 25.298071,314.989227 25.298071,318.167542 
	C34.393826,318.167542 43.195091,318.167542 52.069214,318.502411 
	C53.775196,321.071991 55.319351,323.378998 57.062439,325.524384 
	C59.632492,328.687561 62.344238,331.735596 64.995636,334.832672 
z"/>
<path fill="#F0671F" opacity="1.000000" stroke="none" 
	d="
M486.832825,401.004395 
	C486.881287,414.694702 486.929718,428.384979 486.549561,442.515778 
	C483.788055,441.511414 481.322998,440.239349 479.153717,438.580475 
	C476.044678,436.202942 473.151489,433.543030 470.094452,430.539612 
	C470.022736,419.820587 470.022736,409.565643 470.022736,398.832977 
	C458.912018,398.832977 448.454041,398.832977 437.925171,398.498108 
	C436.221802,395.927856 434.679047,393.619568 432.935638,391.474396 
	C430.364410,388.310516 427.650299,385.262726 425.460999,382.093872 
	C439.615448,382.070282 453.305878,382.118286 467.076721,382.494385 
	C472.385895,390.322205 477.742401,397.683655 486.832825,401.004395 
z"/>
<path fill="#F4851A" opacity="1.000000" stroke="none" 
	d="
M466.109772,504.044952 
	C457.148682,504.873993 448.115173,507.341705 439.518036,502.186218 
	C434.984802,499.467773 433.324677,495.359741 433.019775,490.439026 
	C432.898651,488.484131 432.999908,486.515442 432.999908,483.980804 
	C422.414948,483.980804 412.167419,483.980804 401.379639,483.583038 
	C399.242554,481.307220 397.660278,479.416565 396.045807,477.553772 
	C393.037750,474.083069 390.010925,470.628662 387.456116,467.093475 
	C401.945801,467.068848 415.971313,467.118195 430.020386,467.517639 
	C433.769623,472.152130 437.296600,476.634491 441.294098,480.648224 
	C443.770477,483.134644 446.961609,484.909271 449.981506,487.299316 
	C450.754578,487.785736 451.378052,487.976166 452.024292,488.523834 
	C454.405151,496.096008 460.400421,499.937897 466.109772,504.044952 
z"/>
<path fill="#EC4125" opacity="1.000000" stroke="none" 
	d="
M386.672302,149.006165 
	C389.579041,152.525681 391.980591,156.044144 394.782959,159.207565 
	C399.675568,164.730652 404.814789,170.035294 409.522430,175.723633 
	C393.116821,169.050583 377.039429,162.085388 360.962006,155.120193 
	C359.772095,153.377609 358.814911,151.404892 357.355469,149.928848 
	C345.768982,138.210678 334.053070,126.620422 322.477478,114.891624 
	C321.037445,113.432503 320.186066,111.392410 319.052307,109.253746 
	C327.545837,114.874924 335.677917,121.503754 344.639893,126.701660 
	C357.823120,134.347885 371.599304,140.971695 385.118835,148.038712 
	C385.550873,148.264557 385.938995,148.574493 386.672302,149.006165 
z"/>
<path fill="#F9AC13" opacity="1.000000" stroke="none" 
	d="
M46.996216,274.167908 
	C57.633118,274.113678 68.270233,273.996979 78.906815,274.033264 
	C83.760765,274.049805 86.724136,277.253204 86.970337,282.563568 
	C87.107552,285.523193 86.994987,288.494354 86.994987,292.025757 
	C89.245804,292.025757 91.175278,292.025757 93.629204,292.420288 
	C95.751556,294.692383 97.336006,296.581573 98.950233,298.444946 
	C101.956856,301.915527 104.980804,305.371063 107.533730,308.903625 
	C98.077644,308.984039 89.085258,309.022705 80.093094,308.994415 
	C72.505936,308.970551 70.007591,306.480591 69.997055,299.075592 
	C69.993347,296.467560 69.996468,293.859528 69.996468,290.843018 
	C66.943924,290.843018 64.470551,290.843018 61.915913,290.521240 
	C60.944389,289.282684 60.032330,288.385925 59.167595,287.445648 
	C55.103344,283.026306 51.052097,278.594971 46.996216,274.167908 
z"/>
<path fill="#EC4125" opacity="1.000000" stroke="none" 
	d="
M298.969666,88.647720 
	C297.034698,87.763039 294.583008,86.945869 292.933197,85.316666 
	C277.291992,69.870918 261.787140,54.287125 246.243027,38.743057 
	C238.014191,30.514250 229.767441,22.303232 221.575500,14.037868 
	C220.306549,12.757541 219.288849,11.228208 218.076950,9.490395 
	C236.577393,11.388145 252.165741,19.224237 262.843262,34.839993 
	C271.660126,47.734550 279.400848,61.360012 287.921814,74.464348 
	C291.115387,79.375710 295.165436,83.730148 298.969666,88.647720 
z"/>
<path fill="#EF5F20" opacity="1.000000" stroke="none" 
	d="
M349.998749,272.165436 
	C363.021790,272.120697 376.044830,272.075989 389.610474,272.422913 
	C392.931946,275.873138 395.828796,278.834778 398.447845,282.024536 
	C400.171387,284.123688 401.494476,286.551636 402.551636,288.900391 
	C400.179382,288.968414 398.252380,288.968414 395.834259,288.968414 
	C395.834259,298.402802 395.834259,307.202576 395.484344,315.978882 
	C393.277161,314.657715 391.320465,313.479767 389.583496,312.037201 
	C386.048401,309.101227 382.631836,306.022461 379.095642,302.541229 
	C379.024811,297.820862 379.024811,293.561829 379.024811,288.834717 
	C373.245239,288.834717 368.121826,288.834717 362.920776,288.510681 
	C360.065094,285.127258 357.169403,282.164429 354.550690,278.974243 
	C352.826813,276.874176 351.502167,274.446442 349.998749,272.165436 
z"/>
<path fill="#F37C1B" opacity="1.000000" stroke="none" 
	d="
M286.836090,337.002045 
	C283.597748,333.874390 280.446259,330.649292 277.087433,327.656860 
	C275.178375,325.956024 272.930145,324.635864 270.499420,323.073669 
	C269.612152,312.594116 274.700409,308.051361 289.027130,306.599274 
	C289.027130,305.398315 289.027130,304.131958 289.419495,302.510193 
	C291.900452,303.960938 294.048889,305.703064 296.064056,307.587708 
	C299.366638,310.676453 302.582581,313.857849 305.903503,317.464539 
	C305.926758,330.620270 305.881531,343.311584 305.836304,356.002899 
	C302.583527,352.860565 299.367188,349.679260 296.064484,346.590332 
	C294.049225,344.705566 291.901062,342.962891 289.415741,340.616333 
	C289.018890,334.752167 289.018890,329.428040 289.018890,324.103943 
	C288.291290,324.135986 287.563690,324.168030 286.836090,324.200073 
	C286.836090,328.467407 286.836090,332.734711 286.836090,337.002045 
z"/>
<path fill="#F37C1B" opacity="1.000000" stroke="none" 
	d="
M466.474518,504.026611 
	C460.400421,499.937897 454.405151,496.096008 452.432678,488.470673 
	C455.095001,488.425629 457.371704,488.790924 460.081512,489.225739 
	C459.908630,486.964996 459.803711,485.592987 459.682404,484.006805 
	C457.041260,484.006805 454.692230,483.697998 452.495483,484.142242 
	C451.457214,484.352203 450.710632,486.004547 449.831909,487.003418 
	C446.961609,484.909271 443.770477,483.134644 441.294098,480.648224 
	C437.296600,476.634491 433.769623,472.152130 430.484314,467.445251 
	C442.948547,467.070648 454.972351,467.118469 467.069031,467.501251 
	C469.951508,471.247650 472.847504,474.592865 475.534393,478.098389 
	C476.884399,479.859650 477.854187,481.912323 478.995911,483.833191 
	C478.329773,485.537323 477.042664,487.266754 477.110901,488.940918 
	C477.338959,494.537384 472.990875,501.845978 466.474518,504.026611 
z"/>
<path fill="#F8A514" opacity="1.000000" stroke="none" 
	d="
M289.097778,457.467834 
	C290.863586,458.254913 292.762299,459.305878 294.220032,460.790009 
	C301.490295,468.191986 308.644745,475.707733 315.565918,483.720581 
	C315.291901,485.441406 315.291901,486.625092 315.291901,487.762726 
	C318.746613,488.263367 321.871796,488.716278 324.996948,489.169159 
	C328.507080,493.349365 332.017242,497.529572 335.821472,501.880920 
	C333.136383,503.033813 330.218079,504.476837 327.162659,504.879547 
	C323.410889,505.374023 319.515900,504.697418 315.733154,505.056702 
	C304.118927,506.159851 298.808411,497.183136 298.013550,487.974640 
	C297.915253,486.835968 298.000122,485.681488 298.000122,484.623383 
	C289.509644,481.698151 288.996521,480.987946 289.001953,472.368652 
	C289.004974,467.556244 289.018585,462.743866 289.097778,457.467834 
z"/>
<path fill="#EE5322" opacity="1.000000" stroke="none" 
	d="
M470.167419,312.002472 
	C474.801056,316.729675 479.443970,321.447784 484.059235,326.192871 
	C484.839355,326.994965 485.500153,327.913116 486.591949,329.350342 
	C486.967834,334.246704 486.967834,338.570465 486.967834,342.894196 
	C487.700989,342.857727 488.434174,342.821259 489.167328,342.784790 
	C489.167328,339.190643 489.167328,335.596527 489.167328,332.002380 
	C492.288452,334.678345 495.364716,337.409302 498.548431,340.008575 
	C500.306549,341.443939 502.244934,342.658478 504.497498,344.352417 
	C504.938446,345.199310 504.983917,345.666351 505.029419,346.133423 
	C505.949219,352.645905 500.546906,358.802917 490.802155,360.029175 
	C489.511597,360.191528 488.276703,360.796295 486.600830,361.520752 
	C484.307892,360.247681 482.418457,358.663574 480.555084,357.049347 
	C477.084473,354.042725 473.628998,351.018585 470.096619,347.537659 
	C470.073120,335.383240 470.120270,323.692841 470.167419,312.002472 
z"/>
<path fill="#F69317" opacity="1.000000" stroke="none" 
	d="
M386.991943,467.167419 
	C390.010925,470.628662 393.037750,474.083069 396.045807,477.553772 
	C397.660278,479.416565 399.242554,481.307220 400.915619,483.509064 
	C384.968567,483.881287 368.945282,483.929749 352.458008,483.904297 
	C350.852020,481.910248 349.881622,479.858490 348.531677,478.097809 
	C345.844788,474.593414 342.949158,471.249084 340.530762,467.429932 
	C356.278473,467.070007 371.635223,467.118713 386.991943,467.167419 
z"/>
<path fill="#F48919" opacity="1.000000" stroke="none" 
	d="
M9.166256,113.003433 
	C10.965866,104.301300 12.711610,95.587547 14.585262,86.901382 
	C15.711470,81.680344 17.037075,76.502327 18.835953,71.349136 
	C23.877666,75.263039 28.356495,79.132767 32.902901,83.404076 
	C29.388758,97.366684 25.367586,110.840927 24.509817,124.924690 
	C21.418854,122.358215 18.747471,119.751724 15.852057,117.423889 
	C13.778873,115.757088 11.405626,114.463524 9.166256,113.003433 
z"/>
<path fill="#F1721D" opacity="1.000000" stroke="none" 
	d="
M479.354858,483.790588 
	C477.854187,481.912323 476.884399,479.859650 475.534393,478.098389 
	C472.847504,474.592865 469.951508,471.247650 467.502258,467.425903 
	C468.574127,465.722198 469.876709,464.440979 469.903809,463.133362 
	C470.125641,452.426239 470.109802,441.714233 470.166168,431.003693 
	C473.151489,433.543030 476.044678,436.202942 479.153717,438.580475 
	C481.322998,440.239349 483.788055,441.511414 486.478088,442.979828 
	C486.890411,453.403839 486.996979,463.804382 486.978485,474.204712 
	C486.969727,479.134277 484.542023,482.398895 479.354858,483.790588 
z"/>
<path fill="#F69517" opacity="1.000000" stroke="none" 
	d="
M9.097666,113.467499 
	C11.405626,114.463524 13.778873,115.757088 15.852057,117.423889 
	C18.747471,119.751724 21.418854,122.358215 24.578424,125.388733 
	C24.925083,140.289627 24.879416,154.647263 24.483603,168.980988 
	C22.310963,167.693298 20.398489,166.539841 18.685318,165.142090 
	C15.451633,162.503754 12.332641,159.724838 9.165977,157.004364 
	C9.120343,142.646759 9.074710,128.289154 9.097666,113.467499 
z"/>
<path fill="#F69317" opacity="1.000000" stroke="none" 
	d="
M305.831238,438.004059 
	C301.879486,434.161530 297.956238,430.288971 293.959473,426.493835 
	C292.677887,425.276917 291.202087,424.264587 289.491333,423.081848 
	C289.121338,409.647369 289.075104,396.289703 289.097656,382.468079 
	C296.802856,385.375824 301.663483,391.576447 305.948364,399.226562 
	C305.944916,412.691254 305.888092,425.347656 305.831238,438.004059 
z"/>
<path fill="#EF5C21" opacity="1.000000" stroke="none" 
	d="
M470.167236,348.001709 
	C473.628998,351.018585 477.084473,354.042725 480.555084,357.049347 
	C482.418457,358.663574 484.307892,360.247681 486.509216,361.923523 
	C486.880402,374.693115 486.927948,387.384583 486.904175,400.540222 
	C477.742401,397.683655 472.385895,390.322205 467.509338,382.419556 
	C468.573486,380.720978 469.874207,379.438568 469.903870,378.127472 
	C470.130951,368.088684 470.110657,358.044342 470.167236,348.001709 
z"/>
<path fill="#F0671F" opacity="1.000000" stroke="none" 
	d="
M349.534485,272.097351 
	C351.502167,274.446442 352.826813,276.874176 354.550690,278.974243 
	C357.169403,282.164429 360.065094,285.127258 362.456482,288.578796 
	C348.712891,288.926025 335.355896,288.881104 321.921631,288.511902 
	C320.025116,286.086517 318.179382,284.007629 316.393066,281.878906 
	C313.888580,278.894318 311.428284,275.872620 308.949097,272.866821 
	C310.303467,272.576111 311.656677,272.039398 313.012360,272.033203 
	C325.031403,271.978485 337.050842,272.017761 349.534485,272.097351 
z"/>
<path fill="#F69317" opacity="1.000000" stroke="none" 
	d="
M224.996033,318.166504 
	C226.149216,320.096100 227.125870,322.162537 228.492966,323.926331 
	C231.198730,327.417267 234.120209,330.740967 236.974747,334.483765 
	C223.972672,334.882812 210.948395,334.931915 197.383453,334.583527 
	C195.018158,332.080139 193.118683,330.033722 191.386597,327.854248 
	C188.860291,324.675385 186.454315,321.400909 184.460754,318.093567 
	C198.281647,318.068817 211.638840,318.117645 224.996033,318.166504 
z"/>
<path fill="#F1721D" opacity="1.000000" stroke="none" 
	d="
M308.993317,264.832611 
	C295.302826,264.880554 281.612335,264.928497 267.381042,264.580383 
	C264.354095,261.417542 261.749603,258.745941 259.421722,255.851837 
	C257.753937,253.778381 256.456451,251.407043 255.458054,249.096161 
	C269.612885,249.071701 283.303436,249.119659 297.073151,249.491394 
	C299.639404,252.582047 302.245697,255.253067 304.573395,258.148102 
	C306.239990,260.220856 307.533417,262.593658 308.993317,264.832611 
z"/>
<path fill="#F37C1B" opacity="1.000000" stroke="none" 
	d="
M254.993759,249.168610 
	C256.456451,251.407043 257.753937,253.778381 259.421722,255.851837 
	C261.749603,258.745941 264.354095,261.417542 266.916931,264.507965 
	C252.970840,264.880127 238.948029,264.928680 224.438934,264.555084 
	C222.690002,262.310272 221.538681,260.396759 220.140793,258.684509 
	C217.501022,255.451065 214.719437,252.333389 212.460739,249.095245 
	C226.947723,249.071472 240.970734,249.120041 254.993759,249.168610 
z"/>
<path fill="#ED4B24" opacity="1.000000" stroke="none" 
	d="
M470.992645,264.833130 
	C457.302917,264.879425 443.613220,264.925720 429.382202,264.578125 
	C427.472321,262.535187 426.127045,260.866119 424.730225,259.241333 
	C421.833038,255.871323 418.908478,252.524857 416.459656,249.098358 
	C430.947357,249.074371 444.970642,249.120773 459.017731,249.517334 
	C460.305298,251.689728 461.458832,253.601868 462.856445,255.314911 
	C465.494324,258.548157 468.272675,261.666840 470.992645,264.833130 
z"/>
<path fill="#F1721D" opacity="1.000000" stroke="none" 
	d="
M308.558594,272.924133 
	C311.428284,275.872620 313.888580,278.894318 316.393066,281.878906 
	C318.179382,284.007629 320.025116,286.086517 321.472504,288.579498 
	C319.434814,288.980255 317.768860,288.982819 316.103058,288.999146 
	C308.504547,289.073639 306.032593,291.544739 305.996887,299.019043 
	C305.968231,305.012848 305.890839,311.006470 305.835083,317.000153 
	C302.582581,313.857849 299.366638,310.676453 296.064056,307.587708 
	C294.048889,305.703064 291.900452,303.960938 289.487640,302.077942 
	C287.225616,286.946136 294.783417,277.624786 304.857483,273.649078 
	C305.888306,273.242279 307.061127,273.195343 308.558594,272.924133 
z"/>
<path fill="#EE5622" opacity="1.000000" stroke="none" 
	d="
M402.996918,288.832336 
	C401.494476,286.551636 400.171387,284.123688 398.447845,282.024536 
	C395.828796,278.834778 392.931946,275.873138 390.074493,272.490997 
	C403.019928,272.122589 416.044006,272.077759 429.532166,272.100220 
	C432.453186,275.400726 434.858826,278.674713 437.384735,281.853149 
	C439.116699,284.032440 441.015991,286.078735 442.454041,288.575623 
	C429.044006,288.921967 416.020447,288.877167 402.996918,288.832336 
z"/>
<path fill="#F69317" opacity="1.000000" stroke="none" 
	d="
M181.572311,274.097900 
	C183.132401,276.079681 184.111908,278.110077 185.438492,279.880432 
	C188.082657,283.409210 190.917496,286.795105 193.395309,290.605225 
	C191.527985,290.970459 189.938919,290.970459 187.999603,290.970459 
	C187.999603,293.781982 187.850800,296.076477 188.027740,298.345551 
	C188.540695,304.923431 184.730667,310.472931 173.888672,308.528931 
	C173.098175,307.525024 172.416824,306.824738 171.731659,306.128174 
	C167.153900,301.474304 162.575333,296.821167 157.997025,292.167786 
	C162.103256,292.167786 166.209473,292.167786 170.394760,292.167786 
	C172.725174,285.126343 166.536438,273.226105 181.572311,274.097900 
z"/>
<path fill="#F0671F" opacity="1.000000" stroke="none" 
	d="
M59.877968,13.948177 
	C68.942635,9.222211 78.702057,8.578492 88.659096,8.984806 
	C91.790337,9.112581 94.930435,9.023183 98.603180,9.435625 
	C100.780571,12.079903 102.350861,14.377772 104.079491,16.549616 
	C106.318565,19.362772 108.683884,22.075447 110.530914,24.899204 
	C107.583473,24.976889 105.086105,24.820221 102.618858,25.025501 
	C92.072502,25.902992 81.535042,26.887291 70.923195,27.497631 
	C67.194023,22.757812 63.535995,18.352995 59.877968,13.948177 
z"/>
<path fill="#F37C1B" opacity="1.000000" stroke="none" 
	d="
M32.835323,83.002502 
	C28.356495,79.132767 23.877666,75.263039 19.174488,71.141838 
	C21.225525,58.178875 25.238422,46.119492 32.722221,35.393372 
	C34.409283,37.216953 35.697742,38.877594 37.018581,40.512081 
	C39.347256,43.393726 41.695679,46.259411 43.884796,49.452667 
	C42.131180,53.944324 40.332436,58.052204 38.970718,62.300182 
	C36.774178,69.152420 34.865559,76.096954 32.835323,83.002502 
z"/>
<path fill="#EF5C21" opacity="1.000000" stroke="none" 
	d="
M388.996094,264.832520 
	C375.971832,264.880035 362.947540,264.927551 349.382294,264.579956 
	C347.243805,262.306305 345.580475,260.479156 344.063904,258.537415 
	C341.656097,255.454559 339.346313,252.295181 337.459351,249.096680 
	C350.947784,249.072678 363.972015,249.120163 377.019775,249.517731 
	C378.306946,251.689972 379.460175,253.602234 380.857880,255.314972 
	C383.496307,258.548126 386.275452,261.666443 388.996094,264.832520 
z"/>
<path fill="#EE5322" opacity="1.000000" stroke="none" 
	d="
M389.460327,264.903137 
	C386.275452,261.666443 383.496307,258.548126 380.857880,255.314972 
	C379.460175,253.602234 378.306946,251.689972 377.484070,249.447083 
	C390.614929,249.073837 403.305054,249.121292 415.995178,249.168732 
	C418.908478,252.524857 421.833038,255.871323 424.730225,259.241333 
	C426.127045,260.866119 427.472321,262.535187 428.917908,264.507751 
	C415.971466,264.878784 402.947998,264.926270 389.460327,264.903137 
z"/>
<path fill="#EF5C21" opacity="1.000000" stroke="none" 
	d="
M110.994850,24.831383 
	C108.683884,22.075447 106.318565,19.362772 104.079491,16.549616 
	C102.350861,14.377772 100.780571,12.079903 99.067123,9.503435 
	C111.685585,9.123215 124.376801,9.077623 137.610641,9.423517 
	C140.640350,12.581880 143.246445,15.253055 145.574417,18.147898 
	C147.241455,20.220871 148.535980,22.593407 149.532623,24.900190 
	C136.377304,24.922522 123.686073,24.876953 110.994850,24.831383 
z"/>
<path fill="#F7A015" opacity="1.000000" stroke="none" 
	d="
M9.096684,157.468231 
	C12.332641,159.724838 15.451633,162.503754 18.685318,165.142090 
	C20.398489,166.539841 22.310963,167.693298 24.552935,169.444794 
	C25.259382,182.956375 25.546352,195.980240 25.833321,209.004105 
	C22.010866,205.958130 18.184731,202.916748 14.367766,199.863922 
	C12.839606,198.641708 11.331652,197.394241 9.490596,196.081573 
	C9.120258,183.313965 9.073825,170.623016 9.096684,157.468231 
z"/>
<path fill="#F0671F" opacity="1.000000" stroke="none" 
	d="
M336.995087,249.168167 
	C339.346313,252.295181 341.656097,255.454559 344.063904,258.537415 
	C345.580475,260.479156 347.243805,262.306305 348.918152,264.508514 
	C335.970673,264.880219 322.946381,264.928223 309.457703,264.904419 
	C307.533417,262.593658 306.239990,260.220856 304.573395,258.148102 
	C302.245697,255.253067 299.639404,252.582047 297.537476,249.419556 
	C310.946808,249.072006 323.970947,249.120087 336.995087,249.168167 
z"/>
<path fill="#F79D15" opacity="1.000000" stroke="none" 
	d="
M157.533096,292.098206 
	C162.575333,296.821167 167.153900,301.474304 171.731659,306.128174 
	C172.416824,306.824738 173.098175,307.525024 173.424789,308.598297 
	C160.377991,308.926483 147.687698,308.879944 134.975159,308.483276 
	C132.120651,304.740692 129.199112,301.417450 126.493469,297.926880 
	C125.126534,296.163330 124.150299,294.096954 122.997406,292.167511 
	C134.354660,292.121246 145.711914,292.074951 157.533096,292.098206 
z"/>
<path fill="#F4851A" opacity="1.000000" stroke="none" 
	d="
M211.996780,249.167603 
	C214.719437,252.333389 217.501022,255.451065 220.140793,258.684509 
	C221.538681,260.396759 222.690002,262.310272 223.975052,264.482788 
	C211.640289,264.881439 199.283112,264.930298 186.384979,264.582916 
	C184.475586,262.536865 183.130646,260.866852 181.733795,259.241455 
	C178.836548,255.870163 175.911743,252.522537 173.462067,249.092957 
	C186.616180,249.069687 199.306488,249.118637 211.996780,249.167603 
z"/>
<path fill="#FAB411" opacity="1.000000" stroke="none" 
	d="
M46.545429,274.097351 
	C51.052097,278.594971 55.103344,283.026306 59.167595,287.445648 
	C60.032330,288.385925 60.944389,289.282684 61.455124,290.590637 
	C57.137764,290.981812 53.199936,290.981812 49.000149,290.981812 
	C49.000149,294.559692 49.262974,297.561157 48.936043,300.496979 
	C48.490868,304.494568 46.838188,307.749969 42.112045,308.041901 
	C37.454800,302.973907 32.797554,297.905884 28.067738,292.503113 
	C29.146374,292.064423 30.297583,291.960480 31.505445,291.851440 
	C33.607742,286.545990 28.846375,279.287842 35.262497,275.544220 
	C38.176357,273.844086 42.442135,274.460999 46.545429,274.097351 
z"/>
<path fill="#F1721D" opacity="1.000000" stroke="none" 
	d="
M44.035839,49.131775 
	C41.695679,46.259411 39.347256,43.393726 37.018581,40.512081 
	C35.697742,38.877594 34.409283,37.216953 33.034264,35.224472 
	C39.492199,25.162851 48.764877,18.888197 59.516708,13.982586 
	C63.535995,18.352995 67.194023,22.757812 70.552826,27.573393 
	C58.950420,31.854748 50.560860,39.337482 44.035839,49.131775 
z"/>
<path fill="#FAB411" opacity="1.000000" stroke="none" 
	d="
M65.459282,334.907532 
	C62.344238,331.735596 59.632492,328.687561 57.062439,325.524384 
	C55.319351,323.378998 53.775196,321.071991 52.532803,318.427490 
	C64.281136,318.067261 75.638733,318.116821 87.075378,318.490143 
	C88.752136,320.691681 90.336349,322.581177 91.950478,324.444733 
	C94.956650,327.915436 97.980232,331.371033 100.996582,334.832916 
	C89.305367,334.882721 77.614143,334.932526 65.459282,334.907532 
z"/>
<path fill="#F7A015" opacity="1.000000" stroke="none" 
	d="
M78.459290,264.907166 
	C74.976082,261.368011 71.898026,257.951477 68.962372,254.416641 
	C67.519867,252.679718 66.341217,250.723648 65.465446,248.442902 
	C78.257103,248.401230 90.626480,248.783401 103.076416,249.493637 
	C105.033577,252.309708 106.868233,254.830795 108.798309,257.276581 
	C110.816193,259.833710 112.925888,262.318329 114.995453,264.834656 
	C102.971344,264.883453 90.947227,264.932220 78.459290,264.907166 
z"/>
<path fill="#F69517" opacity="1.000000" stroke="none" 
	d="
M115.459251,264.908447 
	C112.925888,262.318329 110.816193,259.833710 108.798309,257.276581 
	C106.868233,254.830795 105.033577,252.309708 103.540215,249.419846 
	C115.948341,249.067047 127.973228,249.116119 140.077042,249.488983 
	C142.643158,252.580505 145.249634,255.252380 147.577393,258.148285 
	C149.244171,260.221893 150.537628,262.595551 151.997650,264.835327 
	C139.972778,264.884308 127.947914,264.933258 115.459251,264.908447 
z"/>
<path fill="#F79D15" opacity="1.000000" stroke="none" 
	d="
M183.997040,318.167175 
	C186.454315,321.400909 188.860291,324.675385 191.386597,327.854248 
	C193.118683,330.033722 195.018158,332.080139 196.919678,334.509979 
	C185.639328,334.882660 174.282074,334.931366 162.383942,334.582733 
	C160.245865,332.307373 158.662842,330.417145 157.048447,328.554077 
	C154.040863,325.083344 151.015030,321.628357 148.460587,318.093323 
	C160.615265,318.068909 172.306152,318.118042 183.997040,318.167175 
z"/>
<path fill="#EE5322" opacity="1.000000" stroke="none" 
	d="
M149.996704,24.832287 
	C148.535980,22.593407 147.241455,20.220871 145.574417,18.147898 
	C143.246445,15.253055 140.640350,12.581880 138.074677,9.491436 
	C149.353500,9.122763 160.710892,9.077657 172.610870,9.423882 
	C175.640488,12.582015 178.246506,15.253126 180.574432,18.147869 
	C182.241470,20.220806 183.536102,22.593229 184.532761,24.899807 
	C172.711334,24.922482 161.354019,24.877384 149.996704,24.832287 
z"/>
<path fill="#EB3D26" opacity="1.000000" stroke="none" 
	d="
M471.365479,264.902130 
	C468.272675,261.666840 465.494324,258.548157 462.856445,255.314911 
	C461.458832,253.601868 460.305298,251.689728 459.441650,249.417358 
	C460.227173,247.529770 460.915741,246.098923 460.947266,244.653763 
	C461.111877,237.104767 461.109650,229.552124 461.165436,222.000748 
	C464.399902,224.456741 467.675446,226.861053 470.854645,229.386627 
	C473.034790,231.118515 475.080994,233.019043 477.510803,234.921860 
	C477.889252,242.451309 478.135132,249.908646 477.919128,257.352570 
	C477.808746,261.156097 476.090332,264.294373 471.365479,264.902130 
z"/>
<path fill="#F58C18" opacity="1.000000" stroke="none" 
	d="
M152.461395,264.908142 
	C150.537628,262.595551 149.244171,260.221893 147.577393,258.148285 
	C145.249634,255.252380 142.643158,252.580505 140.540756,249.416138 
	C151.616455,249.068069 162.307358,249.116623 172.998260,249.165192 
	C175.911743,252.522537 178.836548,255.870163 181.733795,259.241455 
	C183.130646,260.866852 184.475586,262.536865 185.921143,264.510681 
	C174.973877,264.883423 163.949524,264.932159 152.461395,264.908142 
z"/>
<path fill="#F9AC13" opacity="1.000000" stroke="none" 
	d="
M101.460205,334.907288 
	C97.980232,331.371033 94.956650,327.915436 91.950478,324.444733 
	C90.336349,322.581177 88.752136,320.691681 87.539093,318.415833 
	C98.281670,318.067505 108.639572,318.117218 119.020958,318.517029 
	C121.877632,322.259399 124.800560,325.582092 127.506424,329.073029 
	C128.872818,330.835907 129.846222,332.903381 130.997314,334.833130 
	C121.306152,334.882629 111.614990,334.932159 101.460205,334.907288 
z"/>
<path fill="#F8A514" opacity="1.000000" stroke="none" 
	d="
M131.461014,334.906708 
	C129.846222,332.903381 128.872818,330.835907 127.506424,329.073029 
	C124.800560,325.582092 121.877632,322.259399 119.484680,318.443451 
	C129.282211,318.068787 138.639511,318.117798 147.996796,318.166840 
	C151.015030,321.628357 154.040863,325.083344 157.048447,328.554077 
	C158.662842,330.417145 160.245865,332.307373 161.920227,334.509216 
	C151.973190,334.882141 141.948944,334.931213 131.461014,334.906708 
z"/>
<path fill="#F8A514" opacity="1.000000" stroke="none" 
	d="
M122.533562,292.097168 
	C124.150299,294.096954 125.126534,296.163330 126.493469,297.926880 
	C129.199112,301.417450 132.120651,304.740692 134.511261,308.553467 
	C125.378922,308.926849 116.688225,308.879852 107.997528,308.832855 
	C104.980804,305.371063 101.956856,301.915527 98.950233,298.444946 
	C97.336006,296.581573 95.751556,294.692383 94.075294,292.491150 
	C103.354530,292.120605 112.712120,292.073700 122.533562,292.097168 
z"/>
<path fill="#ED4B24" opacity="1.000000" stroke="none" 
	d="
M184.996887,24.832031 
	C183.536102,22.593229 182.241470,20.220806 180.574432,18.147869 
	C178.246506,15.253126 175.640488,12.582015 173.074951,9.491671 
	C181.354584,9.122738 189.712723,9.077351 198.535141,9.100072 
	C202.016815,12.629426 205.041794,16.084116 208.048569,19.554558 
	C209.662720,21.417641 211.245667,23.307779 212.498199,25.559036 
	C210.238358,25.620832 208.328049,25.080950 206.406784,25.038540 
	C199.272110,24.881037 192.133820,24.887278 184.996887,24.832031 
z"/>
<path fill="#EA3827" opacity="1.000000" stroke="none" 
	d="
M505.387390,345.877258 
	C504.983917,345.666351 504.938446,345.199310 504.845215,344.383789 
	C504.862885,336.633728 504.928253,329.232147 505.015808,321.353943 
	C505.359192,324.693665 505.857178,328.505402 505.955231,332.327423 
	C506.068817,336.753937 505.830750,341.189484 505.387390,345.877258 
z"/>
<path fill="#EC4125" opacity="1.000000" stroke="none" 
	d="
M316.973938,106.652496 
	C315.800995,106.167931 314.487823,105.378822 313.108521,104.236832 
	C314.306152,104.705292 315.569946,105.526619 316.973938,106.652496 
z"/>
<path fill="#EC4125" opacity="1.000000" stroke="none" 
	d="
M303.877136,93.723816 
	C303.616943,93.785065 303.416473,93.547974 303.148193,93.070999 
	C303.329071,93.060326 303.614563,93.258446 303.877136,93.723816 
z"/>
<path fill="#EC4125" opacity="1.000000" stroke="none" 
	d="
M306.844788,96.728561 
	C306.603333,96.843323 306.412476,96.681305 306.140930,96.332809 
	C306.406525,96.019806 306.684937,96.121620 306.844788,96.728561 
z"/>
<path fill="#000000" opacity="1.000000" stroke="none" 
	d="
M184.532776,24.899803 
	C192.133820,24.887278 199.272110,24.881037 206.406784,25.038540 
	C208.328049,25.080950 210.238358,25.620832 212.576141,25.882908 
	C231.859360,26.635290 244.858459,36.609947 253.743286,52.470963 
	C263.427460,69.758904 274.305481,86.093605 287.400269,101.071266 
	C306.366516,122.764648 329.211761,139.102356 354.598907,152.226608 
	C356.456207,153.186768 358.343628,154.088547 360.589539,155.068817 
	C377.039429,162.085388 393.116821,169.050583 409.578735,176.068176 
	C424.830994,181.089233 439.644104,186.232147 454.600037,190.919540 
	C459.041656,192.311615 461.571564,193.746094 461.146851,199.130402 
	C460.573181,206.402222 461.019226,213.754501 461.096619,221.536499 
	C461.109650,229.552124 461.111877,237.104767 460.947266,244.653763 
	C460.915741,246.098923 460.227173,247.529770 459.417786,249.067200 
	C444.970642,249.120773 430.947357,249.074371 416.459656,249.098358 
	C403.305054,249.121292 390.614929,249.073837 377.460510,249.097015 
	C363.972015,249.120163 350.947784,249.072678 337.459351,249.096680 
	C323.970947,249.120087 310.946808,249.072006 297.458313,249.095764 
	C283.303436,249.119659 269.612885,249.071701 255.458054,249.096176 
	C240.970734,249.120041 226.947723,249.071472 212.460739,249.095245 
	C199.306488,249.118637 186.616180,249.069687 173.462067,249.092957 
	C162.307358,249.116623 151.616455,249.068069 140.461838,249.092346 
	C127.973228,249.116119 115.948341,249.067047 103.459656,249.091766 
	C90.626480,248.783401 78.257103,248.401230 65.441727,248.092773 
	C51.501167,244.905045 40.400818,237.862244 32.909256,226.154922 
	C29.758980,221.231888 28.245253,215.261597 25.910442,209.385742 
	C25.546352,195.980240 25.259382,182.956375 24.903080,169.468704 
	C24.879416,154.647263 24.925083,140.289627 24.902143,125.467941 
	C25.367586,110.840927 29.388758,97.366684 32.902901,83.404076 
	C34.865559,76.096954 36.774178,69.152420 38.970718,62.300182 
	C40.332436,58.052204 42.131180,53.944324 43.884796,49.452667 
	C50.560860,39.337482 58.950420,31.854748 70.623962,27.908394 
	C81.535042,26.887291 92.072502,25.902992 102.618858,25.025501 
	C105.086105,24.820221 107.583473,24.976889 110.530914,24.899204 
	C123.686073,24.876953 136.377304,24.922522 149.532623,24.900188 
	C161.354019,24.877384 172.711334,24.922482 184.532776,24.899803 
M59.323681,49.186909 
	C51.543827,57.972824 49.167305,68.941521 46.229012,80.364319 
	C44.907787,85.713501 43.570602,91.058800 42.268543,96.412643 
	C39.218086,108.955605 46.520039,117.710693 56.023178,117.943352 
	C64.674217,118.155151 73.336990,117.887634 82.922913,117.976303 
	C94.280357,117.928253 105.637794,117.880211 117.923241,117.976952 
	C130.947525,117.929413 143.971802,117.881866 157.924179,117.977699 
	C171.614532,117.929771 185.304871,117.881844 199.919128,117.976120 
	C204.397812,117.928505 209.109695,118.753899 213.301941,117.634026 
	C220.033539,115.835808 226.648148,112.040810 224.973694,97.161812 
	C223.317047,87.361694 221.571365,77.575584 220.027054,67.757797 
	C218.235138,56.365986 212.240814,47.879227 202.392761,42.161716 
	C191.063324,35.584152 178.543503,35.658104 165.068390,36.030067 
	C153.709961,36.076263 142.351547,36.122463 130.065369,36.033173 
	C117.043312,36.077999 104.021248,36.122826 90.155220,36.029552 
	C88.096046,36.352608 86.047577,36.803185 83.975876,36.976917 
	C74.384926,37.781216 66.445831,41.859512 59.323681,49.186909 
M411.033081,196.930786 
	C411.021637,206.887711 411.273346,216.854721 410.892303,226.797485 
	C410.689423,232.091339 412.985535,234.818710 417.689789,235.988113 
	C426.020905,238.059082 434.320374,240.380203 442.765778,241.816544 
	C446.978363,242.532990 452.371399,243.581223 454.763031,236.597839 
	C454.840820,226.139420 454.677277,215.671371 455.093811,205.226471 
	C455.316345,199.646088 452.758820,196.602234 447.925934,195.092087 
	C439.107971,192.336731 430.261719,189.654251 421.351715,187.217651 
	C415.315125,185.566833 410.872192,189.577194 411.033081,196.930786 
M305.241455,190.245499 
	C305.439972,179.830734 305.638489,169.415970 305.976593,158.073669 
	C305.930725,152.043060 305.884857,146.012466 305.946930,139.506561 
	C305.946930,139.506561 305.833984,139.032410 305.968109,138.256226 
	C305.207764,134.611237 304.263184,131.424194 300.732361,128.957581 
	C296.186279,125.781731 292.232300,121.690788 288.299164,117.720711 
	C282.256287,111.621086 276.756287,104.943123 270.366760,99.250397 
	C268.248657,97.363304 263.740570,96.611343 260.991364,97.470947 
	C258.803345,98.155075 256.682953,101.917961 256.219910,104.604836 
	C255.472107,108.944542 256.111115,113.523216 256.028473,118.929596 
	C256.074036,128.287369 256.119629,137.645157 256.029724,147.931168 
	C256.018829,157.076721 255.702484,166.238556 256.189148,175.357559 
	C256.329346,177.984543 258.150391,181.803818 260.281281,182.827652 
	C271.377197,188.158936 282.741089,192.966888 294.181183,197.532303 
	C299.475281,199.645020 304.201141,196.388229 305.241455,190.245499 
M359.029816,181.930176 
	C359.018463,192.382401 359.127899,202.836823 358.939117,213.285843 
	C358.858398,217.754684 360.874786,220.652252 364.822662,221.859268 
	C374.255219,224.743195 383.732147,227.534027 393.311737,229.867218 
	C399.948975,231.483765 404.270782,228.565735 404.972443,222.072876 
	C404.980377,210.963181 404.766968,199.846878 405.099030,188.746872 
	C405.243225,183.926346 402.891296,181.149567 399.079987,179.644928 
	C389.137268,175.719666 379.048340,172.161774 368.982178,168.556625 
	C368.046448,168.221497 366.824097,168.438263 365.791992,168.662201 
	C360.351227,169.842606 357.906250,174.700104 359.029816,181.930176 
M172.251801,149.229752 
	C166.399231,156.054504 163.681320,163.748108 163.835907,172.945206 
	C164.008911,183.238281 171.114273,195.597076 184.986694,200.526627 
	C195.036026,204.097610 211.121292,200.027130 216.676941,191.821289 
	C222.076141,186.740585 224.323547,180.064133 224.878845,173.072250 
	C225.848740,160.859802 218.631607,148.482254 208.289566,143.776352 
	C197.075104,138.673477 182.235840,139.619537 172.251801,149.229752 
M89.184967,190.362396 
	C94.457344,185.577621 95.849648,179.296753 96.209480,172.544922 
	C96.732399,162.732681 93.520035,154.255341 86.226700,147.876373 
	C75.760063,138.721970 57.446232,138.128433 46.342636,147.164505 
	C37.190151,155.507874 33.084759,165.675018 36.058968,177.931015 
	C39.363808,191.549484 48.468479,199.016922 62.087688,201.687408 
	C68.667374,202.977585 84.297707,199.223206 89.184967,190.362396 
M308.031219,161.931076 
	C308.019348,173.577881 308.131775,185.226822 307.931396,196.870392 
	C307.856506,201.222122 309.992310,203.660034 313.651337,204.981247 
	C323.122070,208.400925 332.627533,211.730225 342.172852,214.935776 
	C351.085785,217.928925 355.312866,214.539520 354.973877,204.073425 
	C354.981049,192.075653 355.183685,180.072327 354.842590,168.084457 
	C354.767822,165.455826 353.485565,161.660248 351.516998,160.487427 
	C341.016602,154.231628 330.214661,148.456192 319.324860,142.890533 
	C313.689636,140.010406 308.203491,143.675415 308.028412,150.016388 
	C307.927460,153.674454 308.111237,157.340363 308.031219,161.931076 
z"/>
<path fill="#000000" opacity="1.000000" stroke="none" 
	d="
M305.900879,438.467896 
	C305.888092,425.347656 305.944916,412.691254 306.023071,399.573853 
	C320.385620,399.065613 334.726807,399.018372 349.995850,398.975342 
	C365.281219,398.931061 379.638733,398.882599 394.460175,398.906372 
	C409.281433,398.930023 423.638763,398.881500 437.996063,398.832977 
	C448.454041,398.832977 458.912018,398.832977 470.022736,398.832977 
	C470.022736,409.565643 470.022736,419.820587 470.094452,430.539612 
	C470.109802,441.714233 470.125641,452.426239 469.903809,463.133362 
	C469.876709,464.440979 468.574127,465.722198 467.429443,467.091003 
	C454.972351,467.118469 442.948547,467.070648 430.460754,467.095154 
	C415.971313,467.118195 401.945801,467.068848 387.456116,467.093445 
	C371.635223,467.118713 356.278473,467.070007 340.457672,467.095093 
	C328.865845,467.168915 317.738098,467.168915 305.970490,467.168915 
	C305.970490,457.450745 305.970490,448.191254 305.900879,438.467896 
M426.308105,418.196686 
	C416.822784,431.203583 420.588409,442.498108 427.975922,449.102997 
	C437.678436,457.777649 450.003448,457.510284 460.761505,447.717682 
	C461.257660,446.882538 461.720062,446.025085 462.255127,445.215668 
	C468.712830,435.447113 466.675842,421.890564 457.252014,414.867188 
	C448.120728,408.061920 434.738892,408.508362 426.308105,418.196686 
M347.680084,448.824463 
	C356.248779,441.872284 355.391418,425.768005 349.155029,418.459351 
	C339.814362,407.512756 324.629242,408.250763 315.302643,417.170929 
	C309.641083,423.681641 307.925568,431.608307 310.360931,439.375458 
	C315.739960,456.530823 336.528931,460.011658 347.680084,448.824463 
M406.268768,440.232727 
	C410.637573,438.532349 411.808502,434.837006 410.774963,430.950775 
	C409.720520,426.986053 406.848450,424.060089 402.235809,424.028473 
	C392.739502,423.963379 383.241974,423.956787 373.746155,424.048920 
	C372.162933,424.064270 370.461823,424.433167 369.029877,425.099854 
	C365.329041,426.823090 363.526917,430.307068 364.226929,433.938507 
	C364.913696,437.501160 366.783630,441.082764 371.663300,441.023224 
	C382.986359,440.884949 394.310852,440.865936 406.268768,440.232727 
z"/>
<path fill="#000000" opacity="1.000000" stroke="none" 
	d="
M305.903503,317.464539 
	C305.890839,311.006470 305.968231,305.012848 305.996887,299.019043 
	C306.032593,291.544739 308.504547,289.073639 316.103058,288.999146 
	C317.768860,288.982819 319.434814,288.980255 321.549805,288.903748 
	C335.355896,288.881104 348.712891,288.926025 362.534119,288.902832 
	C368.121826,288.834717 373.245239,288.834717 379.024811,288.834717 
	C379.024811,293.561829 379.024811,297.820862 379.027405,303.005371 
	C379.075043,315.955475 379.120087,327.980164 379.097229,340.468811 
	C379.003387,354.585876 378.977448,368.238953 378.488037,381.939667 
	C364.681427,382.046906 351.338287,382.106506 337.995148,382.166107 
	C327.536987,382.166107 317.078857,382.166107 305.972626,382.166107 
	C305.972626,373.446411 305.972626,365.188843 305.904480,356.467072 
	C305.881531,343.311584 305.926758,330.620270 305.903503,317.464539 
z"/>
<path fill="#F37C1B" opacity="1.000000" stroke="none" 
	d="
M338.019135,382.523193 
	C351.338287,382.106506 364.681427,382.046906 378.659302,382.233032 
	C380.631409,383.921143 381.990906,385.343842 383.301941,386.809784 
	C386.877625,390.808167 390.432861,394.824768 393.996216,398.834167 
	C379.638733,398.882599 365.281219,398.931061 350.459839,398.906860 
	C347.457031,395.848938 344.797852,392.955658 342.420471,389.846924 
	C340.761444,387.677551 339.488525,385.213013 338.019135,382.523193 
z"/>
<path fill="#000000" opacity="1.000000" stroke="none" 
	d="
M286.903931,337.412170 
	C286.836090,332.734711 286.836090,328.467407 286.836090,324.200073 
	C287.563690,324.168030 288.291290,324.135986 289.018890,324.103943 
	C289.018890,329.428040 289.018890,334.752167 289.091492,340.539185 
	C288.792938,341.672516 288.421753,342.342957 288.050598,343.013397 
	C287.765503,342.944092 287.480438,342.874756 287.195343,342.805420 
	C287.120819,341.144409 287.046265,339.483368 286.903931,337.412170 
z"/>
<path fill="#000000" opacity="1.000000" stroke="none" 
	d="
M402.551636,288.900391 
	C416.020447,288.877167 429.044006,288.921967 442.531616,288.899384 
	C448.641296,288.888428 454.286896,288.943542 459.932526,289.001587 
	C466.113525,289.065125 469.692749,292.394165 469.963623,298.617249 
	C470.144073,302.763641 470.016724,306.923401 470.097290,311.539825 
	C470.120270,323.692841 470.073120,335.383240 470.096619,347.537659 
	C470.110657,358.044342 470.130951,368.088684 469.903870,378.127472 
	C469.874207,379.438568 468.573486,380.720978 467.428894,382.091492 
	C453.305878,382.118286 439.615448,382.070282 424.996887,382.025940 
	C414.815582,382.029663 405.562469,382.029663 395.833191,382.029663 
	C395.833191,372.583801 395.833191,363.793335 395.904968,354.538879 
	C395.929260,341.384094 395.881775,328.693207 395.834259,316.002350 
	C395.834259,307.202576 395.834259,298.402802 395.834259,288.968414 
	C398.252380,288.968414 400.179382,288.968414 402.551636,288.900391 
z"/>
<path fill="#000000" opacity="1.000000" stroke="none" 
	d="
M489.097504,331.567383 
	C489.167328,335.596527 489.167328,339.190643 489.167328,342.784790 
	C488.434174,342.821259 487.700989,342.857727 486.967834,342.894196 
	C486.967834,338.570465 486.967834,334.246704 486.900208,329.462708 
	C487.050110,327.369263 487.267670,325.736053 487.485229,324.102875 
	C487.999359,324.120605 488.513519,324.138367 489.027679,324.156128 
	C489.027679,326.481537 489.027679,328.806946 489.097504,331.567383 
z"/>
<path fill="#000000" opacity="1.000000" stroke="none" 
	d="
M107.533737,308.903625 
	C116.688225,308.879852 125.378922,308.926849 134.533508,308.903625 
	C147.687698,308.879944 160.377991,308.926483 173.532166,308.903625 
	C184.730667,310.472931 188.540695,304.923431 188.027740,298.345551 
	C187.850800,296.076477 187.999603,293.781982 187.999603,290.970459 
	C189.938919,290.970459 191.527985,290.970459 193.557434,290.898163 
	C198.776474,290.825867 203.555130,290.825867 208.996231,290.825867 
	C208.996231,293.975983 208.989578,296.720947 208.997574,299.465851 
	C209.015091,305.488037 212.424149,308.902740 218.558640,308.997009 
	C222.695038,309.060608 226.832352,309.064514 230.969131,309.107574 
	C231.109680,309.109009 231.248825,309.245056 231.693390,309.478119 
	C231.693390,312.019287 231.693390,314.730988 231.693390,318.020386 
	C229.732971,318.020386 227.808960,318.020386 225.440491,318.093445 
	C211.638840,318.117645 198.281647,318.068817 184.460754,318.093567 
	C172.306152,318.118042 160.615265,318.068909 148.460587,318.093323 
	C138.639511,318.117798 129.282211,318.068787 119.461197,318.093323 
	C108.639572,318.117218 98.281670,318.067505 87.460045,318.092102 
	C75.638733,318.116821 64.281136,318.067261 52.459946,318.092621 
	C43.195091,318.167542 34.393826,318.167542 25.298071,318.167542 
	C25.298071,314.989227 25.298071,312.262695 25.298071,308.782623 
	C30.760061,308.782623 36.198990,308.782623 41.874981,308.412262 
	C46.838188,307.749969 48.490868,304.494568 48.936043,300.496979 
	C49.262974,297.561157 49.000149,294.559692 49.000149,290.981812 
	C53.199936,290.981812 57.137764,290.981812 61.536385,290.912415 
	C64.470551,290.843018 66.943924,290.843018 69.996468,290.843018 
	C69.996468,293.859528 69.993347,296.467560 69.997055,299.075592 
	C70.007591,306.480591 72.505936,308.970551 80.093094,308.994415 
	C89.085258,309.022705 98.077644,308.984039 107.533737,308.903625 
z"/>
<path fill="#000000" opacity="1.000000" stroke="none" 
	d="
M325.354584,488.945557 
	C321.871796,488.716278 318.746613,488.263367 315.291901,487.762726 
	C315.291901,486.625092 315.291901,485.441406 315.643555,484.044250 
	C319.242035,483.830719 322.488892,483.830719 326.074127,483.830719 
	C325.923767,485.863068 325.817993,487.292480 325.354584,488.945557 
z"/>
<path fill="#F1721D" opacity="1.000000" stroke="none" 
	d="
M395.833191,355.002838 
	C395.833191,363.793335 395.833191,372.583801 395.833191,382.029663 
	C405.562469,382.029663 414.815582,382.029663 424.532867,382.097595 
	C427.650299,385.262726 430.364410,388.310516 432.935638,391.474396 
	C434.679047,393.619568 436.221802,395.927856 437.925171,398.498108 
	C423.638763,398.881500 409.281433,398.930023 394.460175,398.906372 
	C390.432861,394.824768 386.877625,390.808167 383.301941,386.809784 
	C381.990906,385.343842 380.631409,383.921143 379.122742,382.185364 
	C378.977448,368.238953 379.003387,354.585876 379.421204,340.545349 
	C381.200500,341.263672 382.676971,342.275635 383.958893,343.492523 
	C387.956543,347.287628 391.880585,351.160278 395.833191,355.002838 
z"/>
<path fill="#000000" opacity="1.000000" stroke="none" 
	d="
M449.981506,487.299347 
	C450.710632,486.004547 451.457214,484.352203 452.495483,484.142242 
	C454.692230,483.697998 457.041260,484.006805 459.682404,484.006805 
	C459.803711,485.592987 459.908630,486.964996 460.081512,489.225739 
	C457.371704,488.790924 455.095001,488.425629 452.409912,488.113464 
	C451.378052,487.976166 450.754578,487.785736 449.981506,487.299347 
z"/>
<path fill="#F0671F" opacity="1.000000" stroke="none" 
	d="
M395.904968,354.538879 
	C391.880585,351.160278 387.956543,347.287628 383.958893,343.492523 
	C382.676971,342.275635 381.200500,341.263672 379.489105,340.081360 
	C379.120087,327.980164 379.075043,315.955475 379.098236,303.466675 
	C382.631836,306.022461 386.048401,309.101227 389.583496,312.037201 
	C391.320465,313.479767 393.277161,314.657715 395.484344,315.978882 
	C395.881775,328.693207 395.929260,341.384094 395.904968,354.538879 
z"/>
<path fill="#ED4D23" opacity="1.000000" stroke="none" 
	d="
M308.166809,161.002747 
	C308.111237,157.340363 307.927460,153.674454 308.028412,150.016388 
	C308.203491,143.675415 313.689636,140.010406 319.324860,142.890533 
	C330.214661,148.456192 341.016602,154.231628 351.516998,160.487427 
	C353.485565,161.660248 354.767822,165.455826 354.842590,168.084457 
	C355.183685,180.072327 354.981049,192.075653 354.580048,204.459412 
	C352.782349,203.721695 351.246399,202.727097 349.998932,201.450546 
	C345.998505,197.356812 342.104858,193.158752 338.099426,188.538818 
	C338.019745,184.086456 338.130005,180.090347 337.934601,176.109253 
	C337.869202,174.776825 337.408569,172.883606 336.465942,172.277802 
	C332.943451,170.013931 329.146271,168.177444 325.198395,166.043533 
	C325.054626,168.034027 324.947418,169.518280 324.500183,171.072983 
	C322.135864,170.623428 319.748413,170.612381 318.161285,169.479797 
	C314.617828,166.951157 311.473663,163.862961 308.166809,161.002747 
z"/>
<path fill="#ED5023" opacity="1.000000" stroke="none" 
	d="
M256.164398,118.000961 
	C256.111115,113.523216 255.472107,108.944542 256.219910,104.604836 
	C256.682953,101.917961 258.803345,98.155075 260.991364,97.470947 
	C263.740570,96.611343 268.248657,97.363304 270.366760,99.250397 
	C276.756287,104.943123 282.256287,111.621086 288.299164,117.720711 
	C292.232300,121.690788 296.186279,125.781731 300.732361,128.957581 
	C304.263184,131.424194 305.207764,134.611237 305.815674,138.751709 
	C305.554596,139.524261 305.613190,139.769150 305.838989,139.981857 
	C305.884857,146.012466 305.930725,152.043060 305.584045,158.600067 
	C303.249054,158.372192 301.090424,157.936920 299.408997,156.797501 
	C295.862213,154.394089 292.565155,151.622086 289.096222,148.570236 
	C288.721069,145.784515 289.277618,142.593018 287.952545,141.227676 
	C283.463837,136.602570 278.308929,132.623978 273.257935,128.268433 
	C273.086060,129.375488 272.959930,130.188065 272.483643,130.977478 
	C270.276306,129.656494 268.319702,128.478317 266.582703,127.035782 
	C263.047241,124.099670 259.630219,121.020927 256.164398,118.000961 
z"/>
<path fill="#EE5322" opacity="1.000000" stroke="none" 
	d="
M165.996506,36.165745 
	C178.543503,35.658104 191.063324,35.584152 202.392761,42.161716 
	C212.240814,47.879227 218.235138,56.365986 220.027054,67.757797 
	C221.571365,77.575584 223.317047,87.361694 224.568573,97.509682 
	C219.739105,94.035248 215.380020,90.133186 210.856735,86.431801 
	C209.161942,85.044960 207.085052,84.125031 205.105560,82.568665 
	C204.359070,78.321938 204.055450,74.385048 202.913193,70.708725 
	C201.844238,67.268250 200.371964,63.737576 198.223740,60.890575 
	C192.948410,53.899284 184.704605,53.892651 176.974884,52.482361 
	C174.301422,48.921280 171.494049,45.823132 169.060944,42.454647 
	C167.715683,40.592220 166.997406,38.276905 165.996506,36.165745 
z"/>
<path fill="#F69517" opacity="1.000000" stroke="none" 
	d="
M88.831589,191.003250 
	C84.297707,199.223206 68.667374,202.977585 62.087688,201.687408 
	C48.468479,199.016922 39.363808,191.549484 36.058968,177.931015 
	C33.084759,165.675018 37.190151,155.507874 46.664593,147.409592 
	C48.328526,153.914520 53.140007,157.056229 57.955063,160.365570 
	C55.869595,164.368408 52.260792,168.114990 52.398300,171.718628 
	C52.652905,178.390884 57.073017,183.194794 64.116516,184.533554 
	C69.613579,185.578369 73.454422,182.518723 77.031693,179.209885 
	C81.013191,183.370560 84.922386,187.186905 88.831589,191.003250 
z"/>
<path fill="#F2761C" opacity="1.000000" stroke="none" 
	d="
M216.048126,192.106506 
	C211.121292,200.027130 195.036026,204.097610 184.986694,200.526627 
	C171.114273,195.597076 164.008911,183.238281 163.835907,172.945206 
	C163.681320,163.748108 166.399231,156.054504 172.859665,149.260071 
	C177.684418,152.872894 181.901321,156.455383 185.967911,160.354797 
	C179.878464,165.752625 178.167908,175.903961 186.310150,181.773575 
	C191.281952,185.357666 196.141953,187.014038 205.127655,180.181152 
	C208.880661,184.352478 212.464386,188.229492 216.048126,192.106506 
z"/>
<path fill="#EE5622" opacity="1.000000" stroke="none" 
	d="
M308.099030,161.466919 
	C311.473663,163.862961 314.617828,166.951157 318.161285,169.479797 
	C319.748413,170.612381 322.135864,170.623428 324.567017,171.537079 
	C324.983826,177.263275 324.884521,182.600006 325.088074,187.925156 
	C325.133240,189.106567 325.966797,190.860062 326.919586,191.295807 
	C330.275604,192.830612 333.841461,193.906723 337.703583,195.291626 
	C337.880859,192.900620 338.025421,190.950775 338.169983,189.000946 
	C342.104858,193.158752 345.998505,197.356812 349.998932,201.450546 
	C351.246399,202.727097 352.782349,203.721695 354.509888,204.923508 
	C355.312866,214.539520 351.085785,217.928925 342.172852,214.935776 
	C332.627533,211.730225 323.122070,208.400925 313.651337,204.981247 
	C309.992310,203.660034 307.856506,201.222122 307.931396,196.870392 
	C308.131775,185.226822 308.019348,173.577881 308.099030,161.466919 
z"/>
<path fill="#F16C1E" opacity="1.000000" stroke="none" 
	d="
M216.362534,191.963898 
	C212.464386,188.229492 208.880661,184.352478 205.156128,179.807800 
	C205.899963,175.489868 208.274185,171.425934 207.396454,168.265045 
	C204.494293,157.813873 194.455597,155.294083 186.118225,160.037857 
	C181.901321,156.455383 177.684418,152.872894 173.172577,149.119659 
	C182.235840,139.619537 197.075104,138.673477 208.289566,143.776352 
	C218.631607,148.482254 225.848740,160.859802 224.878845,173.072250 
	C224.323547,180.064133 222.076141,186.740585 216.362534,191.963898 
z"/>
<path fill="#EC4625" opacity="1.000000" stroke="none" 
	d="
M359.165283,181.001648 
	C357.906250,174.700104 360.351227,169.842606 365.791992,168.662201 
	C366.824097,168.438263 368.046448,168.221497 368.982178,168.556625 
	C379.048340,172.161774 389.137268,175.719666 399.079987,179.644928 
	C402.891296,181.149567 405.243225,183.926346 405.099030,188.746872 
	C404.766968,199.846878 404.980377,210.963181 404.550598,222.513031 
	C402.732971,221.936661 401.236755,221.031738 399.960083,219.882858 
	C395.984589,216.305206 392.092194,212.635193 388.097931,208.539276 
	C388.018585,204.452988 388.049652,200.827682 387.986511,197.204025 
	C387.933746,194.177734 379.211395,188.825668 376.628784,190.334869 
	C376.044006,190.676590 376.082184,192.084381 375.483459,192.978149 
	C373.288300,191.669266 371.399261,190.441849 369.607697,189.085648 
	C366.098145,186.428955 362.642975,183.700439 359.165283,181.001648 
z"/>
<path fill="#F58C18" opacity="1.000000" stroke="none" 
	d="
M89.008278,190.682831 
	C84.922386,187.186905 81.013191,183.370560 77.201813,178.866302 
	C80.355156,172.466354 79.512817,164.901688 74.878250,161.197556 
	C70.127655,157.400681 64.407417,156.581406 58.121864,160.044830 
	C53.140007,157.056229 48.328526,153.914520 46.974548,147.268936 
	C57.446232,138.128433 75.760063,138.721970 86.226700,147.876373 
	C93.520035,154.255341 96.732399,162.732681 96.209480,172.544922 
	C95.849648,179.296753 94.457344,185.577621 89.008278,190.682831 
z"/>
<path fill="#ED4D23" opacity="1.000000" stroke="none" 
	d="
M359.097534,181.465912 
	C362.642975,183.700439 366.098145,186.428955 369.607697,189.085648 
	C371.399261,190.441849 373.288300,191.669266 375.551147,193.438416 
	C375.978882,195.246750 375.996094,196.571548 375.997528,197.896362 
	C376.008820,208.328003 376.004669,208.347702 386.397980,210.046661 
	C386.917023,210.131500 387.574524,209.368973 388.167572,209.000992 
	C392.092194,212.635193 395.984589,216.305206 399.960083,219.882858 
	C401.236755,221.031738 402.732971,221.936661 404.480957,222.977173 
	C404.270782,228.565735 399.948975,231.483765 393.311737,229.867218 
	C383.732147,227.534027 374.255219,224.743195 364.822662,221.859268 
	C360.874786,220.652252 358.858398,217.754684 358.939117,213.285843 
	C359.127899,202.836823 359.018463,192.382401 359.097534,181.465912 
z"/>
<path fill="#EF5F20" opacity="1.000000" stroke="none" 
	d="
M304.833923,191.001648 
	C304.201141,196.388229 299.475281,199.645020 294.181183,197.532303 
	C282.741089,192.966888 271.377197,188.158936 260.281281,182.827652 
	C258.150391,181.803818 256.329346,177.984543 256.189148,175.357559 
	C255.702484,166.238556 256.018829,157.076721 256.421387,147.543976 
	C258.691498,148.753723 260.582306,150.336365 262.445679,151.950684 
	C265.917145,154.958115 269.372620,157.983994 272.902252,161.444519 
	C272.050842,167.732941 273.638214,171.747742 280.120026,173.144104 
	C283.174774,173.802170 285.974091,175.645782 289.182861,177.122818 
	C290.807251,178.518463 292.119965,179.763824 293.472168,180.964661 
	C297.250671,184.320160 301.045532,187.657272 304.833923,191.001648 
z"/>
<path fill="#EB3D26" opacity="1.000000" stroke="none" 
	d="
M411.168121,196.002396 
	C410.872192,189.577194 415.315125,185.566833 421.351715,187.217651 
	C430.261719,189.654251 439.107971,192.336731 447.925934,195.092087 
	C452.758820,196.602234 455.316345,199.646088 455.093811,205.226471 
	C454.677277,215.671371 454.840820,226.139420 454.234375,236.557724 
	C448.526215,231.679932 443.346710,226.842270 438.097778,221.548523 
	C438.016937,218.271255 438.216797,215.425537 437.892914,212.640701 
	C437.758392,211.483871 436.426788,209.487335 435.775116,209.540314 
	C433.064972,209.760620 430.620178,206.010757 427.509033,208.924515 
	C424.126709,206.067276 421.164917,203.170959 417.975342,200.552155 
	C415.876160,198.828629 413.448608,197.505066 411.168121,196.002396 
z"/>
<path fill="#EC4625" opacity="1.000000" stroke="none" 
	d="
M411.100586,196.466583 
	C413.448608,197.505066 415.876160,198.828629 417.975342,200.552155 
	C421.164917,203.170959 424.126709,206.067276 427.576233,209.380432 
	C427.977509,211.716248 427.994293,213.517319 427.996979,215.318436 
	C428.006531,221.726013 431.518158,224.036102 438.167206,222.004608 
	C443.346710,226.842270 448.526215,231.679932 453.877747,236.810364 
	C452.371399,243.581223 446.978363,242.532990 442.765778,241.816544 
	C434.320374,240.380203 426.020905,238.059082 417.689789,235.988113 
	C412.985535,234.818710 410.689423,232.091339 410.892303,226.797485 
	C411.273346,216.854721 411.021637,206.887711 411.100586,196.466583 
z"/>
<path fill="#F4851A" opacity="1.000000" stroke="none" 
	d="
M81.994591,117.831383 
	C73.336990,117.887634 64.674217,118.155151 56.023178,117.943352 
	C46.520039,117.710693 39.218086,108.955605 42.268543,96.412643 
	C43.570602,91.058800 44.907787,85.713501 46.873764,80.308243 
	C49.425610,81.748901 51.340618,83.235680 53.237885,84.744759 
	C55.868950,86.837494 58.486687,88.946991 61.060673,91.457466 
	C60.422829,94.787453 59.834450,97.709282 59.137829,101.168625 
	C62.536110,101.168625 65.765549,101.168625 69.074036,101.492355 
	C71.931580,104.874214 74.828079,107.835464 77.446747,111.024826 
	C79.169914,113.123543 80.492584,115.551086 81.994591,117.831383 
z"/>
<path fill="#F0671F" opacity="1.000000" stroke="none" 
	d="
M198.995224,117.833908 
	C185.304871,117.881844 171.614532,117.929771 157.438110,117.556076 
	C154.119949,113.741547 151.198746,110.417717 148.493118,106.926804 
	C147.126053,105.162949 146.149109,103.096718 145.459900,101.095383 
	C159.614594,101.071106 173.305161,101.118660 187.019501,101.516357 
	C189.154739,104.536880 191.321136,107.166077 193.361801,109.889481 
	C195.307785,112.486542 197.122696,115.181816 198.995224,117.833908 
z"/>
<path fill="#EF5C21" opacity="1.000000" stroke="none" 
	d="
M199.457184,117.905014 
	C197.122696,115.181816 195.307785,112.486542 193.361801,109.889481 
	C191.321136,107.166077 189.154739,104.536880 187.483643,101.445107 
	C194.483673,101.023705 201.043335,101.023705 208.335480,101.023705 
	C207.217102,94.628098 206.199738,88.810158 205.182373,82.992226 
	C207.085052,84.125031 209.161942,85.044960 210.856735,86.431801 
	C215.380020,90.133186 219.739105,94.035248 224.498184,97.929596 
	C226.648148,112.040810 220.033539,115.835808 213.301941,117.634026 
	C209.109695,118.753899 204.397812,117.928505 199.457184,117.905014 
z"/>
<path fill="#F1721D" opacity="1.000000" stroke="none" 
	d="
M144.995773,101.167206 
	C146.149109,103.096718 147.126053,105.162949 148.493118,106.926804 
	C151.198746,110.417717 154.119949,113.741547 156.974060,117.484390 
	C143.971802,117.881866 130.947525,117.929413 117.437180,117.554787 
	C114.840759,114.462151 112.676544,111.832062 110.635590,109.109566 
	C108.688454,106.512230 106.869766,103.818596 105.458794,101.094955 
	C118.947243,101.070816 131.971512,101.119011 144.995773,101.167206 
z"/>
<path fill="#F0671F" opacity="1.000000" stroke="none" 
	d="
M90.999191,36.167648 
	C104.021248,36.122826 117.043312,36.077999 130.531509,36.485840 
	C132.175507,39.303604 133.157516,41.794708 134.578644,44.003258 
	C136.543823,47.057278 138.839706,49.898510 140.530121,52.898697 
	C128.043793,52.922024 116.021309,52.877522 103.920853,52.509155 
	C101.064980,49.126537 98.169449,46.164345 95.550842,42.974804 
	C93.827148,40.875271 92.502518,38.448105 90.999191,36.167648 
z"/>
<path fill="#EF5C21" opacity="1.000000" stroke="none" 
	d="
M140.993958,52.830868 
	C138.839706,49.898510 136.543823,47.057278 134.578644,44.003258 
	C133.157516,41.794708 132.175507,39.303604 130.995392,36.553585 
	C142.351547,36.122463 153.709961,36.076263 165.532440,36.097908 
	C166.997406,38.276905 167.715683,40.592220 169.060944,42.454647 
	C171.494049,45.823132 174.301422,48.921280 176.510712,52.550255 
	C164.377243,52.922424 152.685608,52.876644 140.993958,52.830868 
z"/>
<path fill="#F16C1E" opacity="1.000000" stroke="none" 
	d="
M90.577209,36.098602 
	C92.502518,38.448105 93.827148,40.875271 95.550842,42.974804 
	C98.169449,46.164345 101.064980,49.126537 103.457565,52.578430 
	C101.098091,52.981106 99.119690,53.079239 97.150482,52.985096 
	C87.800247,52.538059 79.038300,53.861919 71.802628,60.961864 
	C67.623268,56.889839 63.789146,52.888523 59.955025,48.887203 
	C66.445831,41.859512 74.384926,37.781216 83.975876,36.976917 
	C86.047577,36.803185 88.096046,36.352608 90.577209,36.098602 
z"/>
<path fill="#F37C1B" opacity="1.000000" stroke="none" 
	d="
M104.994614,101.167290 
	C106.869766,103.818596 108.688454,106.512230 110.635590,109.109566 
	C112.676544,111.832062 114.840759,114.462151 116.973175,117.482391 
	C105.637794,117.880211 94.280357,117.928253 82.458755,117.903839 
	C80.492584,115.551086 79.169914,113.123543 77.446747,111.024826 
	C74.828079,107.835464 71.931580,104.874214 69.538193,101.419937 
	C81.613747,101.071632 93.304176,101.119461 104.994614,101.167290 
z"/>
<path fill="#F37C1B" opacity="1.000000" stroke="none" 
	d="
M59.639351,49.037056 
	C63.789146,52.888523 67.623268,56.889839 71.638794,61.274330 
	C70.518921,63.834274 68.773338,65.864540 67.998283,68.214844 
	C65.509262,75.762695 63.378872,83.428818 61.110130,91.049309 
	C58.486687,88.946991 55.868950,86.837494 53.237885,84.744759 
	C51.340618,83.235680 49.425610,81.748901 47.206932,80.102318 
	C49.167305,68.941521 51.543827,57.972824 59.639351,49.037056 
z"/>
<path fill="#EE5622" opacity="1.000000" stroke="none" 
	d="
M305.037689,190.623566 
	C301.045532,187.657272 297.250671,184.320160 293.472168,180.964661 
	C292.119965,179.763824 290.807251,178.518463 289.227325,176.659103 
	C289.040619,167.016968 289.103119,158.009140 289.165649,149.001328 
	C292.565155,151.622086 295.862213,154.394089 299.408997,156.797501 
	C301.090424,157.936920 303.249054,158.372192 305.514221,159.063843 
	C305.638489,169.415970 305.439972,179.830734 305.037689,190.623566 
z"/>
<path fill="#EE5622" opacity="1.000000" stroke="none" 
	d="
M272.834747,161.002182 
	C269.372620,157.983994 265.917145,154.958115 262.445679,151.950684 
	C260.582306,150.336365 258.691498,148.753723 256.489136,147.079865 
	C256.119629,137.645157 256.074036,128.287369 256.096436,118.465279 
	C259.630219,121.020927 263.047241,124.099670 266.582703,127.035782 
	C268.319702,128.478317 270.276306,129.656494 272.551697,131.441803 
	C272.924835,141.620285 272.879791,151.311234 272.834747,161.002182 
z"/>
<path fill="#EE5622" opacity="1.000000" stroke="none" 
	d="
M305.892944,139.744202 
	C305.613190,139.769150 305.554596,139.524261 305.748627,139.139801 
	C305.833984,139.032410 305.946930,139.506561 305.892944,139.744202 
z"/>
<path fill="#F58C18" opacity="1.000000" stroke="none" 
	d="
M315.946320,416.873566 
	C324.629242,408.250763 339.814362,407.512756 349.155029,418.459351 
	C355.391418,425.768005 356.248779,441.872284 347.192871,448.672852 
	C343.123230,444.642792 339.540741,440.764313 335.984192,436.497986 
	C337.382599,433.288818 337.814484,430.675018 334.880219,428.411133 
	C331.509186,425.810364 329.418549,428.469391 326.970947,429.768738 
	C323.247223,425.241791 319.596771,421.057678 315.946320,416.873566 
z"/>
<path fill="#F1721D" opacity="1.000000" stroke="none" 
	d="
M426.952393,417.889709 
	C434.738892,408.508362 448.120728,408.061920 457.252014,414.867188 
	C466.675842,421.890564 468.712830,435.447113 462.255127,445.215668 
	C461.720062,446.025085 461.257660,446.882538 460.110016,447.812561 
	C455.292572,444.231964 451.126617,440.556458 447.109680,436.554932 
	C449.348633,433.776947 449.662811,431.107788 447.249542,428.893433 
	C444.649414,426.507660 441.728119,426.976044 438.874573,428.819611 
	C434.787170,424.979919 430.869781,421.434814 426.952393,417.889709 
z"/>
<path fill="#F2761C" opacity="1.000000" stroke="none" 
	d="
M426.630249,418.043213 
	C430.869781,421.434814 434.787170,424.979919 438.842377,429.198792 
	C439.282379,432.046906 438.836945,435.220428 440.073669,436.145813 
	C441.662933,437.334961 444.602661,436.719238 446.960632,436.880981 
	C451.126617,440.556458 455.292572,444.231964 459.803833,447.982605 
	C450.003448,457.510284 437.678436,457.777649 427.975922,449.102997 
	C420.588409,442.498108 416.822784,431.203583 426.630249,418.043213 
z"/>
<path fill="#F4851A" opacity="1.000000" stroke="none" 
	d="
M405.951782,440.515656 
	C394.310852,440.865936 382.986359,440.884949 371.663300,441.023224 
	C366.783630,441.082764 364.913696,437.501160 364.226929,433.938507 
	C363.526917,430.307068 365.329041,426.823090 369.029877,425.099854 
	C370.461823,424.433167 372.162933,424.064270 373.746155,424.048920 
	C383.241974,423.956787 392.739502,423.963379 402.235809,424.028473 
	C406.848450,424.060089 409.720520,426.986053 410.774963,430.950775 
	C411.808502,434.837006 410.637573,438.532349 405.951782,440.515656 
z"/>
<path fill="#F69317" opacity="1.000000" stroke="none" 
	d="
M315.624481,417.022247 
	C319.596771,421.057678 323.247223,425.241791 326.950714,430.182617 
	C327.037537,437.796387 329.065155,439.142883 335.958282,436.885864 
	C339.540741,440.764313 343.123230,444.642792 346.876770,448.814636 
	C336.528931,460.011658 315.739960,456.530823 310.360931,439.375458 
	C307.925568,431.608307 309.641083,423.681641 315.624481,417.022247 
z"/>
<path fill="#000000" opacity="1.000000" stroke="none" 
	d="
M338.099426,188.538818 
	C338.025421,190.950775 337.880859,192.900620 337.703583,195.291626 
	C333.841461,193.906723 330.275604,192.830612 326.919586,191.295807 
	C325.966797,190.860062 325.133240,189.106567 325.088074,187.925156 
	C324.884521,182.600006 324.983826,177.263275 324.907074,171.466614 
	C324.947418,169.518280 325.054626,168.034027 325.198395,166.043533 
	C329.146271,168.177444 332.943451,170.013931 336.465942,172.277802 
	C337.408569,172.883606 337.869202,174.776825 337.934601,176.109253 
	C338.130005,180.090347 338.019745,184.086456 338.099426,188.538818 
z"/>
<path fill="#000000" opacity="1.000000" stroke="none" 
	d="
M272.902252,161.444519 
	C272.879791,151.311234 272.924835,141.620285 272.901825,131.464996 
	C272.959930,130.188065 273.086060,129.375488 273.257935,128.268433 
	C278.308929,132.623978 283.463837,136.602570 287.952545,141.227676 
	C289.277618,142.593018 288.721069,145.784515 289.096222,148.570236 
	C289.103119,158.009140 289.040619,167.016968 288.933655,176.488495 
	C285.974091,175.645782 283.174774,173.802170 280.120026,173.144104 
	C273.638214,171.747742 272.050842,167.732941 272.902252,161.444519 
z"/>
<path fill="#000000" opacity="1.000000" stroke="none" 
	d="
M61.060669,91.457466 
	C63.378872,83.428818 65.509262,75.762695 67.998283,68.214844 
	C68.773338,65.864540 70.518921,63.834274 71.984039,61.345032 
	C79.038300,53.861919 87.800247,52.538059 97.150482,52.985096 
	C99.119690,53.079239 101.098091,52.981106 103.535538,52.902290 
	C116.021309,52.877522 128.043793,52.922024 140.530121,52.898697 
	C152.685608,52.876644 164.377243,52.922424 176.533066,52.900307 
	C184.704605,53.892651 192.948410,53.899284 198.223740,60.890575 
	C200.371964,63.737576 201.844238,67.268250 202.913193,70.708725 
	C204.055450,74.385048 204.359070,78.321938 205.105560,82.568665 
	C206.199738,88.810158 207.217102,94.628098 208.335480,101.023705 
	C201.043335,101.023705 194.483673,101.023705 187.459869,101.094955 
	C173.305161,101.118660 159.614594,101.071106 145.459900,101.095383 
	C131.971512,101.119011 118.947243,101.070816 105.458794,101.094955 
	C93.304176,101.119461 81.613747,101.071632 69.459152,101.096214 
	C65.765549,101.168625 62.536110,101.168625 59.137829,101.168625 
	C59.834450,97.709282 60.422829,94.787453 61.060669,91.457466 
z"/>
<path fill="#000000" opacity="1.000000" stroke="none" 
	d="
M57.955063,160.365570 
	C64.407417,156.581406 70.127655,157.400681 74.878250,161.197556 
	C79.512817,164.901688 80.355156,172.466354 77.129517,178.521973 
	C73.454422,182.518723 69.613579,185.578369 64.116516,184.533554 
	C57.073017,183.194794 52.652905,178.390884 52.398300,171.718628 
	C52.260792,168.114990 55.869595,164.368408 57.955063,160.365570 
z"/>
<path fill="#000000" opacity="1.000000" stroke="none" 
	d="
M185.967911,160.354797 
	C194.455597,155.294083 204.494293,157.813873 207.396454,168.265045 
	C208.274185,171.425934 205.899963,175.489868 204.986862,179.513489 
	C196.141953,187.014038 191.281952,185.357666 186.310150,181.773575 
	C178.167908,175.903961 179.878464,165.752625 185.967911,160.354797 
z"/>
<path fill="#000000" opacity="1.000000" stroke="none" 
	d="
M388.097931,208.539276 
	C387.574524,209.368973 386.917023,210.131500 386.397980,210.046661 
	C376.004669,208.347702 376.008820,208.328003 375.997528,197.896362 
	C375.996094,196.571548 375.978882,195.246750 375.901276,193.461700 
	C376.082184,192.084381 376.044006,190.676590 376.628784,190.334869 
	C379.211395,188.825668 387.933746,194.177734 387.986511,197.204025 
	C388.049652,200.827682 388.018585,204.452988 388.097931,208.539276 
z"/>
<path fill="#000000" opacity="1.000000" stroke="none" 
	d="
M438.097778,221.548508 
	C431.518158,224.036102 428.006531,221.726013 427.996979,215.318436 
	C427.994293,213.517319 427.977509,211.716248 427.900024,209.459229 
	C430.620178,206.010757 433.064972,209.760620 435.775116,209.540314 
	C436.426788,209.487335 437.758392,211.483871 437.892914,212.640701 
	C438.216797,215.425537 438.016937,218.271255 438.097778,221.548508 
z"/>
<path fill="#000000" opacity="1.000000" stroke="none" 
	d="
M335.984192,436.497986 
	C329.065155,439.142883 327.037537,437.796387 327.023987,430.525513 
	C329.418549,428.469391 331.509186,425.810364 334.880219,428.411133 
	C337.814484,430.675018 337.382599,433.288818 335.984192,436.497986 
z"/>
<path fill="#000000" opacity="1.000000" stroke="none" 
	d="
M447.109680,436.554932 
	C444.602661,436.719238 441.662933,437.334961 440.073669,436.145813 
	C438.836945,435.220428 439.282379,432.046906 439.012390,429.493347 
	C441.728119,426.976044 444.649414,426.507660 447.249542,428.893433 
	C449.662811,431.107788 449.348633,433.776947 447.109680,436.554932 
z"/>
</svg>